<svg width="432" height="113" viewBox="0 0 432 113" fill="none" xmlns="http://www.w3.org/2000/svg">
<rect width="432" height="113" fill="#1E1E1E"/>
<g clip-path="url(#clip0_0_1)">
<rect width="432" height="113" fill="black"/>
<path d="M36.2578 62.5703V73H30.7695V44.5625H40.4961C42.0456 44.5625 43.4453 44.7904 44.6953 45.2461C45.9453 45.6888 47.013 46.3073 47.8984 47.1016C48.7708 47.9089 49.4414 48.8724 49.9102 49.9922C50.3919 51.112 50.6328 52.3555 50.6328 53.7227C50.6328 54.9987 50.3919 56.1771 49.9102 57.2578C49.4414 58.3385 48.7708 59.2695 47.8984 60.0508C47.013 60.8451 45.9453 61.4635 44.6953 61.9062C43.4453 62.349 42.0456 62.5703 40.4961 62.5703H36.2578ZM36.2578 58.1172H40.4961C41.2773 58.1172 41.9544 58 42.5273 57.7656C43.1003 57.5312 43.582 57.2122 43.9727 56.8086C44.3503 56.4049 44.6302 55.9427 44.8125 55.4219C45.0078 54.888 45.1055 54.3346 45.1055 53.7617C45.1055 53.0977 45.0078 52.4792 44.8125 51.9062C44.6302 51.3333 44.3503 50.832 43.9727 50.4023C43.582 49.9727 43.1003 49.6341 42.5273 49.3867C41.9544 49.1393 41.2773 49.0156 40.4961 49.0156H36.2578V58.1172ZM79.9414 60.5391H68.2617V68.5664H81.9141V73H62.7539V44.5625H81.8555V49.0352H68.2617V56.2031H79.9414V60.5391ZM104.113 62.375H99.9531V73H94.4648V44.5625H103.996C105.572 44.5625 106.997 44.7513 108.273 45.1289C109.549 45.4935 110.643 46.0339 111.555 46.75C112.453 47.4661 113.143 48.3581 113.625 49.4258C114.12 50.4935 114.367 51.7305 114.367 53.1367C114.367 54.1523 114.243 55.0703 113.996 55.8906C113.762 56.6979 113.423 57.4206 112.98 58.0586C112.525 58.7096 111.978 59.276 111.34 59.7578C110.715 60.2396 110.012 60.6562 109.23 61.0078L115.344 72.7461V73H109.465L104.113 62.375ZM99.9531 57.9219H104.016C104.862 57.9219 105.604 57.8047 106.242 57.5703C106.893 57.3229 107.421 56.9714 107.824 56.5156C108.163 56.151 108.417 55.7148 108.586 55.207C108.768 54.6992 108.859 54.1328 108.859 53.5078C108.859 52.7526 108.742 52.0885 108.508 51.5156C108.286 50.9297 107.948 50.4479 107.492 50.0703C107.089 49.7318 106.594 49.4714 106.008 49.2891C105.422 49.1068 104.751 49.0156 103.996 49.0156H99.9531V57.9219ZM143.988 60.5391H132.309V68.5664H145.961V73H126.801V44.5625H145.902V49.0352H132.309V56.2031H143.988V60.5391ZM178.062 69.6797C177.711 70.1094 177.229 70.5456 176.617 70.9883C176.005 71.431 175.283 71.8281 174.449 72.1797C173.603 72.5443 172.659 72.8372 171.617 73.0586C170.576 73.2799 169.456 73.3906 168.258 73.3906C167.216 73.3906 166.233 73.2669 165.309 73.0195C164.397 72.7852 163.557 72.4401 162.789 71.9844C162.034 71.5156 161.344 70.9427 160.719 70.2656C160.107 69.5885 159.586 68.8138 159.156 67.9414C158.661 66.9779 158.284 65.8906 158.023 64.6797C157.776 63.4688 157.652 62.1536 157.652 60.7344V56.8672C157.652 55.513 157.776 54.2565 158.023 53.0977C158.271 51.9258 158.622 50.8646 159.078 49.9141C159.508 49.0677 160.003 48.306 160.562 47.6289C161.135 46.9518 161.76 46.3659 162.438 45.8711C163.232 45.3112 164.098 44.888 165.035 44.6016C165.973 44.3151 166.962 44.1719 168.004 44.1719C169.605 44.1719 170.999 44.3737 172.184 44.7773C173.382 45.181 174.391 45.7604 175.211 46.5156C176.031 47.2839 176.669 48.2148 177.125 49.3086C177.594 50.4023 177.9 51.6328 178.043 53H172.691C172.6 52.3099 172.457 51.6979 172.262 51.1641C172.079 50.6302 171.826 50.181 171.5 49.8164C171.135 49.4128 170.673 49.1133 170.113 48.918C169.566 48.7096 168.909 48.6055 168.141 48.6055C167.724 48.6055 167.32 48.6706 166.93 48.8008C166.539 48.931 166.174 49.1198 165.836 49.3672C165.393 49.7057 164.99 50.1484 164.625 50.6953C164.273 51.2422 163.98 51.8867 163.746 52.6289C163.564 53.2018 163.421 53.8398 163.316 54.543C163.225 55.2461 163.18 56.0078 163.18 56.8281V60.7344C163.18 61.763 163.245 62.7005 163.375 63.5469C163.518 64.3932 163.714 65.1419 163.961 65.793C164.117 66.1706 164.293 66.5221 164.488 66.8477C164.697 67.1602 164.924 67.4401 165.172 67.6875C165.589 68.1042 166.07 68.4232 166.617 68.6445C167.177 68.8529 167.809 68.9635 168.512 68.9766C168.941 68.9766 169.365 68.944 169.781 68.8789C170.198 68.8138 170.589 68.7227 170.953 68.6055C171.318 68.4883 171.637 68.3581 171.91 68.2148C172.197 68.0586 172.411 67.8958 172.555 67.7266L172.574 62.5703H167.867V58.4688H178.043L178.062 69.6797ZM200.184 62.375H196.023V73H190.535V44.5625H200.066C201.642 44.5625 203.068 44.7513 204.344 45.1289C205.62 45.4935 206.714 46.0339 207.625 46.75C208.523 47.4661 209.214 48.3581 209.695 49.4258C210.19 50.4935 210.438 51.7305 210.438 53.1367C210.438 54.1523 210.314 55.0703 210.066 55.8906C209.832 56.6979 209.493 57.4206 209.051 58.0586C208.595 58.7096 208.048 59.276 207.41 59.7578C206.785 60.2396 206.082 60.6562 205.301 61.0078L211.414 72.7461V73H205.535L200.184 62.375ZM196.023 57.9219H200.086C200.932 57.9219 201.674 57.8047 202.312 57.5703C202.964 57.3229 203.491 56.9714 203.895 56.5156C204.233 56.151 204.487 55.7148 204.656 55.207C204.839 54.6992 204.93 54.1328 204.93 53.5078C204.93 52.7526 204.812 52.0885 204.578 51.5156C204.357 50.9297 204.018 50.4479 203.562 50.0703C203.159 49.7318 202.664 49.4714 202.078 49.2891C201.492 49.1068 200.822 49.0156 200.066 49.0156H196.023V57.9219ZM223.77 44.5625H240.215V48.9961H234.668V68.5859H240.215V73H223.77V68.5859H229.18V48.9961H223.77V44.5625ZM273.332 73H267.863L259.953 54.6602V73H254.426V44.5625H259.953L267.805 62.8242L267.824 44.5625H273.332V73ZM305.551 44.5625L305.57 63.4102C305.57 64.9987 305.349 66.4115 304.906 67.6484C304.477 68.8854 303.852 69.9271 303.031 70.7734C302.198 71.6328 301.182 72.2839 299.984 72.7266C298.799 73.1693 297.445 73.3906 295.922 73.3906C294.49 73.3906 293.194 73.1693 292.035 72.7266C290.889 72.2839 289.906 71.6393 289.086 70.793C288.266 69.9466 287.628 68.9049 287.172 67.668C286.729 66.418 286.508 64.9987 286.508 63.4102L286.527 44.5625H292.016L292.035 63.4102C292.048 64.3607 292.139 65.194 292.309 65.9102C292.491 66.6263 292.758 67.2188 293.109 67.6875C293.435 68.1172 293.832 68.4427 294.301 68.6641C294.77 68.8724 295.31 68.9766 295.922 68.9766C296.586 68.9766 297.172 68.8659 297.68 68.6445C298.201 68.4102 298.63 68.0651 298.969 67.6094C299.333 67.1406 299.607 66.5547 299.789 65.8516C299.971 65.1484 300.069 64.3346 300.082 63.4102L300.102 44.5625H305.551ZM333.395 65.5781C333.395 65.0703 333.303 64.5951 333.121 64.1523C332.952 63.7096 332.659 63.293 332.242 62.9023C331.812 62.5247 331.253 62.1797 330.562 61.8672C329.885 61.5417 329.039 61.2422 328.023 60.9688C326.448 60.5391 325.061 60.0182 323.863 59.4062C322.678 58.7943 321.708 58.1237 320.953 57.3945C320.198 56.6654 319.625 55.8581 319.234 54.9727C318.857 54.0872 318.668 53.1237 318.668 52.082C318.668 50.8841 318.922 49.7969 319.43 48.8203C319.938 47.8438 320.641 47.0104 321.539 46.3203C322.438 45.6302 323.499 45.1029 324.723 44.7383C325.947 44.3607 327.275 44.1719 328.707 44.1719C330.191 44.1719 331.546 44.3867 332.77 44.8164C334.007 45.2461 335.068 45.8451 335.953 46.6133C336.839 47.3945 337.529 48.319 338.023 49.3867C338.518 50.4544 338.766 51.6263 338.766 52.9023H333.414C333.388 52.2643 333.271 51.6784 333.062 51.1445C332.867 50.6107 332.574 50.1484 332.184 49.7578C331.78 49.3802 331.279 49.0872 330.68 48.8789C330.094 48.6576 329.404 48.5469 328.609 48.5469C327.88 48.5469 327.229 48.638 326.656 48.8203C326.096 48.9896 325.621 49.2305 325.23 49.543C324.84 49.8685 324.54 50.2526 324.332 50.6953C324.137 51.125 324.039 51.5938 324.039 52.1016C324.039 52.6354 324.169 53.1172 324.43 53.5469C324.703 53.9766 325.094 54.3607 325.602 54.6992C326.109 55.0508 326.721 55.3698 327.438 55.6562C328.167 55.9427 328.987 56.2096 329.898 56.457C330.875 56.7305 331.806 57.0625 332.691 57.4531C333.577 57.8438 334.391 58.293 335.133 58.8008C336.253 59.6341 337.145 60.6042 337.809 61.7109C338.473 62.8177 338.805 64.0938 338.805 65.5391C338.805 66.7891 338.551 67.9023 338.043 68.8789C337.548 69.8424 336.858 70.6562 335.973 71.3203C335.087 71.9974 334.033 72.5117 332.809 72.8633C331.585 73.2018 330.25 73.3711 328.805 73.3711C327.385 73.3711 325.979 73.1628 324.586 72.7461C323.206 72.3164 322.001 71.6914 320.973 70.8711C319.996 70.0638 319.221 69.1133 318.648 68.0195C318.089 66.9258 317.809 65.6432 317.809 64.1719H323.199C323.225 65.0312 323.375 65.7669 323.648 66.3789C323.922 66.9909 324.306 67.4922 324.801 67.8828C325.283 68.2734 325.862 68.5599 326.539 68.7422C327.229 68.9245 327.984 69.0156 328.805 69.0156C329.534 69.0156 330.178 68.931 330.738 68.7617C331.311 68.5924 331.793 68.3581 332.184 68.0586C332.574 67.7591 332.874 67.401 333.082 66.9844C333.29 66.5547 333.395 66.0859 333.395 65.5781ZM365.418 65.5781C365.418 65.0703 365.327 64.5951 365.145 64.1523C364.975 63.7096 364.682 63.293 364.266 62.9023C363.836 62.5247 363.276 62.1797 362.586 61.8672C361.909 61.5417 361.062 61.2422 360.047 60.9688C358.471 60.5391 357.085 60.0182 355.887 59.4062C354.702 58.7943 353.732 58.1237 352.977 57.3945C352.221 56.6654 351.648 55.8581 351.258 54.9727C350.88 54.0872 350.691 53.1237 350.691 52.082C350.691 50.8841 350.945 49.7969 351.453 48.8203C351.961 47.8438 352.664 47.0104 353.562 46.3203C354.461 45.6302 355.522 45.1029 356.746 44.7383C357.97 44.3607 359.298 44.1719 360.73 44.1719C362.215 44.1719 363.569 44.3867 364.793 44.8164C366.03 45.2461 367.091 45.8451 367.977 46.6133C368.862 47.3945 369.552 48.319 370.047 49.3867C370.542 50.4544 370.789 51.6263 370.789 52.9023H365.438C365.411 52.2643 365.294 51.6784 365.086 51.1445C364.891 50.6107 364.598 50.1484 364.207 49.7578C363.803 49.3802 363.302 49.0872 362.703 48.8789C362.117 48.6576 361.427 48.5469 360.633 48.5469C359.904 48.5469 359.253 48.638 358.68 48.8203C358.12 48.9896 357.645 49.2305 357.254 49.543C356.863 49.8685 356.564 50.2526 356.355 50.6953C356.16 51.125 356.062 51.5938 356.062 52.1016C356.062 52.6354 356.193 53.1172 356.453 53.5469C356.727 53.9766 357.117 54.3607 357.625 54.6992C358.133 55.0508 358.745 55.3698 359.461 55.6562C360.19 55.9427 361.01 56.2096 361.922 56.457C362.898 56.7305 363.829 57.0625 364.715 57.4531C365.6 57.8438 366.414 58.293 367.156 58.8008C368.276 59.6341 369.168 60.6042 369.832 61.7109C370.496 62.8177 370.828 64.0938 370.828 65.5391C370.828 66.7891 370.574 67.9023 370.066 68.8789C369.572 69.8424 368.882 70.6562 367.996 71.3203C367.111 71.9974 366.056 72.5117 364.832 72.8633C363.608 73.2018 362.273 73.3711 360.828 73.3711C359.409 73.3711 358.003 73.1628 356.609 72.7461C355.229 72.3164 354.025 71.6914 352.996 70.8711C352.02 70.0638 351.245 69.1133 350.672 68.0195C350.112 66.9258 349.832 65.6432 349.832 64.1719H355.223C355.249 65.0312 355.398 65.7669 355.672 66.3789C355.945 66.9909 356.329 67.4922 356.824 67.8828C357.306 68.2734 357.885 68.5599 358.562 68.7422C359.253 68.9245 360.008 69.0156 360.828 69.0156C361.557 69.0156 362.202 68.931 362.762 68.7617C363.335 68.5924 363.816 68.3581 364.207 68.0586C364.598 67.7591 364.897 67.401 365.105 66.9844C365.314 66.5547 365.418 66.0859 365.418 65.5781ZM397.441 65.5781C397.441 65.0703 397.35 64.5951 397.168 64.1523C396.999 63.7096 396.706 63.293 396.289 62.9023C395.859 62.5247 395.299 62.1797 394.609 61.8672C393.932 61.5417 393.086 61.2422 392.07 60.9688C390.495 60.5391 389.108 60.0182 387.91 59.4062C386.725 58.7943 385.755 58.1237 385 57.3945C384.245 56.6654 383.672 55.8581 383.281 54.9727C382.904 54.0872 382.715 53.1237 382.715 52.082C382.715 50.8841 382.969 49.7969 383.477 48.8203C383.984 47.8438 384.688 47.0104 385.586 46.3203C386.484 45.6302 387.546 45.1029 388.77 44.7383C389.993 44.3607 391.322 44.1719 392.754 44.1719C394.238 44.1719 395.592 44.3867 396.816 44.8164C398.053 45.2461 399.115 45.8451 400 46.6133C400.885 47.3945 401.576 48.319 402.07 49.3867C402.565 50.4544 402.812 51.6263 402.812 52.9023H397.461C397.435 52.2643 397.318 51.6784 397.109 51.1445C396.914 50.6107 396.621 50.1484 396.23 49.7578C395.827 49.3802 395.326 49.0872 394.727 48.8789C394.141 48.6576 393.451 48.5469 392.656 48.5469C391.927 48.5469 391.276 48.638 390.703 48.8203C390.143 48.9896 389.668 49.2305 389.277 49.543C388.887 49.8685 388.587 50.2526 388.379 50.6953C388.184 51.125 388.086 51.5938 388.086 52.1016C388.086 52.6354 388.216 53.1172 388.477 53.5469C388.75 53.9766 389.141 54.3607 389.648 54.6992C390.156 55.0508 390.768 55.3698 391.484 55.6562C392.214 55.9427 393.034 56.2096 393.945 56.457C394.922 56.7305 395.853 57.0625 396.738 57.4531C397.624 57.8438 398.438 58.293 399.18 58.8008C400.299 59.6341 401.191 60.6042 401.855 61.7109C402.52 62.8177 402.852 64.0938 402.852 65.5391C402.852 66.7891 402.598 67.9023 402.09 68.8789C401.595 69.8424 400.905 70.6562 400.02 71.3203C399.134 71.9974 398.079 72.5117 396.855 72.8633C395.632 73.2018 394.297 73.3711 392.852 73.3711C391.432 73.3711 390.026 73.1628 388.633 72.7461C387.253 72.3164 386.048 71.6914 385.02 70.8711C384.043 70.0638 383.268 69.1133 382.695 68.0195C382.135 66.9258 381.855 65.6432 381.855 64.1719H387.246C387.272 65.0312 387.422 65.7669 387.695 66.3789C387.969 66.9909 388.353 67.4922 388.848 67.8828C389.329 68.2734 389.909 68.5599 390.586 68.7422C391.276 68.9245 392.031 69.0156 392.852 69.0156C393.581 69.0156 394.225 68.931 394.785 68.7617C395.358 68.5924 395.84 68.3581 396.23 68.0586C396.621 67.7591 396.921 67.401 397.129 66.9844C397.337 66.5547 397.441 66.0859 397.441 65.5781Z" fill="url(#paint0_linear_0_1)"/>
<g filter="url(#filter0_f_0_1)">
<path d="M36.2578 53.5703V64H30.7695V35.5625H40.4961C42.0456 35.5625 43.4453 35.7904 44.6953 36.2461C45.9453 36.6888 47.013 37.3073 47.8984 38.1016C48.7708 38.9089 49.4414 39.8724 49.9102 40.9922C50.3919 42.112 50.6328 43.3555 50.6328 44.7227C50.6328 45.9987 50.3919 47.1771 49.9102 48.2578C49.4414 49.3385 48.7708 50.2695 47.8984 51.0508C47.013 51.8451 45.9453 52.4635 44.6953 52.9062C43.4453 53.349 42.0456 53.5703 40.4961 53.5703H36.2578ZM36.2578 49.1172H40.4961C41.2773 49.1172 41.9544 49 42.5273 48.7656C43.1003 48.5312 43.582 48.2122 43.9727 47.8086C44.3503 47.4049 44.6302 46.9427 44.8125 46.4219C45.0078 45.888 45.1055 45.3346 45.1055 44.7617C45.1055 44.0977 45.0078 43.4792 44.8125 42.9062C44.6302 42.3333 44.3503 41.832 43.9727 41.4023C43.582 40.9727 43.1003 40.6341 42.5273 40.3867C41.9544 40.1393 41.2773 40.0156 40.4961 40.0156H36.2578V49.1172ZM79.9414 51.5391H68.2617V59.5664H81.9141V64H62.7539V35.5625H81.8555V40.0352H68.2617V47.2031H79.9414V51.5391ZM104.113 53.375H99.9531V64H94.4648V35.5625H103.996C105.572 35.5625 106.997 35.7513 108.273 36.1289C109.549 36.4935 110.643 37.0339 111.555 37.75C112.453 38.4661 113.143 39.3581 113.625 40.4258C114.12 41.4935 114.367 42.7305 114.367 44.1367C114.367 45.1523 114.243 46.0703 113.996 46.8906C113.762 47.6979 113.423 48.4206 112.98 49.0586C112.525 49.7096 111.978 50.276 111.34 50.7578C110.715 51.2396 110.012 51.6562 109.23 52.0078L115.344 63.7461V64H109.465L104.113 53.375ZM99.9531 48.9219H104.016C104.862 48.9219 105.604 48.8047 106.242 48.5703C106.893 48.3229 107.421 47.9714 107.824 47.5156C108.163 47.151 108.417 46.7148 108.586 46.207C108.768 45.6992 108.859 45.1328 108.859 44.5078C108.859 43.7526 108.742 43.0885 108.508 42.5156C108.286 41.9297 107.948 41.4479 107.492 41.0703C107.089 40.7318 106.594 40.4714 106.008 40.2891C105.422 40.1068 104.751 40.0156 103.996 40.0156H99.9531V48.9219ZM143.988 51.5391H132.309V59.5664H145.961V64H126.801V35.5625H145.902V40.0352H132.309V47.2031H143.988V51.5391ZM178.062 60.6797C177.711 61.1094 177.229 61.5456 176.617 61.9883C176.005 62.431 175.283 62.8281 174.449 63.1797C173.603 63.5443 172.659 63.8372 171.617 64.0586C170.576 64.2799 169.456 64.3906 168.258 64.3906C167.216 64.3906 166.233 64.2669 165.309 64.0195C164.397 63.7852 163.557 63.4401 162.789 62.9844C162.034 62.5156 161.344 61.9427 160.719 61.2656C160.107 60.5885 159.586 59.8138 159.156 58.9414C158.661 57.9779 158.284 56.8906 158.023 55.6797C157.776 54.4688 157.652 53.1536 157.652 51.7344V47.8672C157.652 46.513 157.776 45.2565 158.023 44.0977C158.271 42.9258 158.622 41.8646 159.078 40.9141C159.508 40.0677 160.003 39.306 160.562 38.6289C161.135 37.9518 161.76 37.3659 162.438 36.8711C163.232 36.3112 164.098 35.888 165.035 35.6016C165.973 35.3151 166.962 35.1719 168.004 35.1719C169.605 35.1719 170.999 35.3737 172.184 35.7773C173.382 36.181 174.391 36.7604 175.211 37.5156C176.031 38.2839 176.669 39.2148 177.125 40.3086C177.594 41.4023 177.9 42.6328 178.043 44H172.691C172.6 43.3099 172.457 42.6979 172.262 42.1641C172.079 41.6302 171.826 41.181 171.5 40.8164C171.135 40.4128 170.673 40.1133 170.113 39.918C169.566 39.7096 168.909 39.6055 168.141 39.6055C167.724 39.6055 167.32 39.6706 166.93 39.8008C166.539 39.931 166.174 40.1198 165.836 40.3672C165.393 40.7057 164.99 41.1484 164.625 41.6953C164.273 42.2422 163.98 42.8867 163.746 43.6289C163.564 44.2018 163.421 44.8398 163.316 45.543C163.225 46.2461 163.18 47.0078 163.18 47.8281V51.7344C163.18 52.763 163.245 53.7005 163.375 54.5469C163.518 55.3932 163.714 56.1419 163.961 56.793C164.117 57.1706 164.293 57.5221 164.488 57.8477C164.697 58.1602 164.924 58.4401 165.172 58.6875C165.589 59.1042 166.07 59.4232 166.617 59.6445C167.177 59.8529 167.809 59.9635 168.512 59.9766C168.941 59.9766 169.365 59.944 169.781 59.8789C170.198 59.8138 170.589 59.7227 170.953 59.6055C171.318 59.4883 171.637 59.3581 171.91 59.2148C172.197 59.0586 172.411 58.8958 172.555 58.7266L172.574 53.5703H167.867V49.4688H178.043L178.062 60.6797ZM200.184 53.375H196.023V64H190.535V35.5625H200.066C201.642 35.5625 203.068 35.7513 204.344 36.1289C205.62 36.4935 206.714 37.0339 207.625 37.75C208.523 38.4661 209.214 39.3581 209.695 40.4258C210.19 41.4935 210.438 42.7305 210.438 44.1367C210.438 45.1523 210.314 46.0703 210.066 46.8906C209.832 47.6979 209.493 48.4206 209.051 49.0586C208.595 49.7096 208.048 50.276 207.41 50.7578C206.785 51.2396 206.082 51.6562 205.301 52.0078L211.414 63.7461V64H205.535L200.184 53.375ZM196.023 48.9219H200.086C200.932 48.9219 201.674 48.8047 202.312 48.5703C202.964 48.3229 203.491 47.9714 203.895 47.5156C204.233 47.151 204.487 46.7148 204.656 46.207C204.839 45.6992 204.93 45.1328 204.93 44.5078C204.93 43.7526 204.812 43.0885 204.578 42.5156C204.357 41.9297 204.018 41.4479 203.562 41.0703C203.159 40.7318 202.664 40.4714 202.078 40.2891C201.492 40.1068 200.822 40.0156 200.066 40.0156H196.023V48.9219ZM223.77 35.5625H240.215V39.9961H234.668V59.5859H240.215V64H223.77V59.5859H229.18V39.9961H223.77V35.5625ZM273.332 64H267.863L259.953 45.6602V64H254.426V35.5625H259.953L267.805 53.8242L267.824 35.5625H273.332V64ZM305.551 35.5625L305.57 54.4102C305.57 55.9987 305.349 57.4115 304.906 58.6484C304.477 59.8854 303.852 60.9271 303.031 61.7734C302.198 62.6328 301.182 63.2839 299.984 63.7266C298.799 64.1693 297.445 64.3906 295.922 64.3906C294.49 64.3906 293.194 64.1693 292.035 63.7266C290.889 63.2839 289.906 62.6393 289.086 61.793C288.266 60.9466 287.628 59.9049 287.172 58.668C286.729 57.418 286.508 55.9987 286.508 54.4102L286.527 35.5625H292.016L292.035 54.4102C292.048 55.3607 292.139 56.194 292.309 56.9102C292.491 57.6263 292.758 58.2188 293.109 58.6875C293.435 59.1172 293.832 59.4427 294.301 59.6641C294.77 59.8724 295.31 59.9766 295.922 59.9766C296.586 59.9766 297.172 59.8659 297.68 59.6445C298.201 59.4102 298.63 59.0651 298.969 58.6094C299.333 58.1406 299.607 57.5547 299.789 56.8516C299.971 56.1484 300.069 55.3346 300.082 54.4102L300.102 35.5625H305.551ZM333.395 56.5781C333.395 56.0703 333.303 55.5951 333.121 55.1523C332.952 54.7096 332.659 54.293 332.242 53.9023C331.812 53.5247 331.253 53.1797 330.562 52.8672C329.885 52.5417 329.039 52.2422 328.023 51.9688C326.448 51.5391 325.061 51.0182 323.863 50.4062C322.678 49.7943 321.708 49.1237 320.953 48.3945C320.198 47.6654 319.625 46.8581 319.234 45.9727C318.857 45.0872 318.668 44.1237 318.668 43.082C318.668 41.8841 318.922 40.7969 319.43 39.8203C319.938 38.8438 320.641 38.0104 321.539 37.3203C322.438 36.6302 323.499 36.1029 324.723 35.7383C325.947 35.3607 327.275 35.1719 328.707 35.1719C330.191 35.1719 331.546 35.3867 332.77 35.8164C334.007 36.2461 335.068 36.8451 335.953 37.6133C336.839 38.3945 337.529 39.319 338.023 40.3867C338.518 41.4544 338.766 42.6263 338.766 43.9023H333.414C333.388 43.2643 333.271 42.6784 333.062 42.1445C332.867 41.6107 332.574 41.1484 332.184 40.7578C331.78 40.3802 331.279 40.0872 330.68 39.8789C330.094 39.6576 329.404 39.5469 328.609 39.5469C327.88 39.5469 327.229 39.638 326.656 39.8203C326.096 39.9896 325.621 40.2305 325.23 40.543C324.84 40.8685 324.54 41.2526 324.332 41.6953C324.137 42.125 324.039 42.5938 324.039 43.1016C324.039 43.6354 324.169 44.1172 324.43 44.5469C324.703 44.9766 325.094 45.3607 325.602 45.6992C326.109 46.0508 326.721 46.3698 327.438 46.6562C328.167 46.9427 328.987 47.2096 329.898 47.457C330.875 47.7305 331.806 48.0625 332.691 48.4531C333.577 48.8438 334.391 49.293 335.133 49.8008C336.253 50.6341 337.145 51.6042 337.809 52.7109C338.473 53.8177 338.805 55.0938 338.805 56.5391C338.805 57.7891 338.551 58.9023 338.043 59.8789C337.548 60.8424 336.858 61.6562 335.973 62.3203C335.087 62.9974 334.033 63.5117 332.809 63.8633C331.585 64.2018 330.25 64.3711 328.805 64.3711C327.385 64.3711 325.979 64.1628 324.586 63.7461C323.206 63.3164 322.001 62.6914 320.973 61.8711C319.996 61.0638 319.221 60.1133 318.648 59.0195C318.089 57.9258 317.809 56.6432 317.809 55.1719H323.199C323.225 56.0312 323.375 56.7669 323.648 57.3789C323.922 57.9909 324.306 58.4922 324.801 58.8828C325.283 59.2734 325.862 59.5599 326.539 59.7422C327.229 59.9245 327.984 60.0156 328.805 60.0156C329.534 60.0156 330.178 59.931 330.738 59.7617C331.311 59.5924 331.793 59.3581 332.184 59.0586C332.574 58.7591 332.874 58.401 333.082 57.9844C333.29 57.5547 333.395 57.0859 333.395 56.5781ZM365.418 56.5781C365.418 56.0703 365.327 55.5951 365.145 55.1523C364.975 54.7096 364.682 54.293 364.266 53.9023C363.836 53.5247 363.276 53.1797 362.586 52.8672C361.909 52.5417 361.062 52.2422 360.047 51.9688C358.471 51.5391 357.085 51.0182 355.887 50.4062C354.702 49.7943 353.732 49.1237 352.977 48.3945C352.221 47.6654 351.648 46.8581 351.258 45.9727C350.88 45.0872 350.691 44.1237 350.691 43.082C350.691 41.8841 350.945 40.7969 351.453 39.8203C351.961 38.8438 352.664 38.0104 353.562 37.3203C354.461 36.6302 355.522 36.1029 356.746 35.7383C357.97 35.3607 359.298 35.1719 360.73 35.1719C362.215 35.1719 363.569 35.3867 364.793 35.8164C366.03 36.2461 367.091 36.8451 367.977 37.6133C368.862 38.3945 369.552 39.319 370.047 40.3867C370.542 41.4544 370.789 42.6263 370.789 43.9023H365.438C365.411 43.2643 365.294 42.6784 365.086 42.1445C364.891 41.6107 364.598 41.1484 364.207 40.7578C363.803 40.3802 363.302 40.0872 362.703 39.8789C362.117 39.6576 361.427 39.5469 360.633 39.5469C359.904 39.5469 359.253 39.638 358.68 39.8203C358.12 39.9896 357.645 40.2305 357.254 40.543C356.863 40.8685 356.564 41.2526 356.355 41.6953C356.16 42.125 356.062 42.5938 356.062 43.1016C356.062 43.6354 356.193 44.1172 356.453 44.5469C356.727 44.9766 357.117 45.3607 357.625 45.6992C358.133 46.0508 358.745 46.3698 359.461 46.6562C360.19 46.9427 361.01 47.2096 361.922 47.457C362.898 47.7305 363.829 48.0625 364.715 48.4531C365.6 48.8438 366.414 49.293 367.156 49.8008C368.276 50.6341 369.168 51.6042 369.832 52.7109C370.496 53.8177 370.828 55.0938 370.828 56.5391C370.828 57.7891 370.574 58.9023 370.066 59.8789C369.572 60.8424 368.882 61.6562 367.996 62.3203C367.111 62.9974 366.056 63.5117 364.832 63.8633C363.608 64.2018 362.273 64.3711 360.828 64.3711C359.409 64.3711 358.003 64.1628 356.609 63.7461C355.229 63.3164 354.025 62.6914 352.996 61.8711C352.02 61.0638 351.245 60.1133 350.672 59.0195C350.112 57.9258 349.832 56.6432 349.832 55.1719H355.223C355.249 56.0312 355.398 56.7669 355.672 57.3789C355.945 57.9909 356.329 58.4922 356.824 58.8828C357.306 59.2734 357.885 59.5599 358.562 59.7422C359.253 59.9245 360.008 60.0156 360.828 60.0156C361.557 60.0156 362.202 59.931 362.762 59.7617C363.335 59.5924 363.816 59.3581 364.207 59.0586C364.598 58.7591 364.897 58.401 365.105 57.9844C365.314 57.5547 365.418 57.0859 365.418 56.5781ZM397.441 56.5781C397.441 56.0703 397.35 55.5951 397.168 55.1523C396.999 54.7096 396.706 54.293 396.289 53.9023C395.859 53.5247 395.299 53.1797 394.609 52.8672C393.932 52.5417 393.086 52.2422 392.07 51.9688C390.495 51.5391 389.108 51.0182 387.91 50.4062C386.725 49.7943 385.755 49.1237 385 48.3945C384.245 47.6654 383.672 46.8581 383.281 45.9727C382.904 45.0872 382.715 44.1237 382.715 43.082C382.715 41.8841 382.969 40.7969 383.477 39.8203C383.984 38.8438 384.688 38.0104 385.586 37.3203C386.484 36.6302 387.546 36.1029 388.77 35.7383C389.993 35.3607 391.322 35.1719 392.754 35.1719C394.238 35.1719 395.592 35.3867 396.816 35.8164C398.053 36.2461 399.115 36.8451 400 37.6133C400.885 38.3945 401.576 39.319 402.07 40.3867C402.565 41.4544 402.812 42.6263 402.812 43.9023H397.461C397.435 43.2643 397.318 42.6784 397.109 42.1445C396.914 41.6107 396.621 41.1484 396.23 40.7578C395.827 40.3802 395.326 40.0872 394.727 39.8789C394.141 39.6576 393.451 39.5469 392.656 39.5469C391.927 39.5469 391.276 39.638 390.703 39.8203C390.143 39.9896 389.668 40.2305 389.277 40.543C388.887 40.8685 388.587 41.2526 388.379 41.6953C388.184 42.125 388.086 42.5938 388.086 43.1016C388.086 43.6354 388.216 44.1172 388.477 44.5469C388.75 44.9766 389.141 45.3607 389.648 45.6992C390.156 46.0508 390.768 46.3698 391.484 46.6562C392.214 46.9427 393.034 47.2096 393.945 47.457C394.922 47.7305 395.853 48.0625 396.738 48.4531C397.624 48.8438 398.438 49.293 399.18 49.8008C400.299 50.6341 401.191 51.6042 401.855 52.7109C402.52 53.8177 402.852 55.0938 402.852 56.5391C402.852 57.7891 402.598 58.9023 402.09 59.8789C401.595 60.8424 400.905 61.6562 400.02 62.3203C399.134 62.9974 398.079 63.5117 396.855 63.8633C395.632 64.2018 394.297 64.3711 392.852 64.3711C391.432 64.3711 390.026 64.1628 388.633 63.7461C387.253 63.3164 386.048 62.6914 385.02 61.8711C384.043 61.0638 383.268 60.1133 382.695 59.0195C382.135 57.9258 381.855 56.6432 381.855 55.1719H387.246C387.272 56.0312 387.422 56.7669 387.695 57.3789C387.969 57.9909 388.353 58.4922 388.848 58.8828C389.329 59.2734 389.909 59.5599 390.586 59.7422C391.276 59.9245 392.031 60.0156 392.852 60.0156C393.581 60.0156 394.225 59.931 394.785 59.7617C395.358 59.5924 395.84 59.3581 396.23 59.0586C396.621 58.7591 396.921 58.401 397.129 57.9844C397.337 57.5547 397.441 57.0859 397.441 56.5781Z" fill="url(#paint1_linear_0_1)"/>
</g>
</g>
<defs>
<filter id="filter0_f_0_1" x="22.7695" y="27.1719" width="388.082" height="45.2188" filterUnits="userSpaceOnUse" color-interpolation-filters="sRGB">
<feFlood flood-opacity="0" result="BackgroundImageFix"/>
<feBlend mode="normal" in="SourceGraphic" in2="BackgroundImageFix" result="shape"/>
<feGaussianBlur stdDeviation="4" result="effect1_foregroundBlur_0_1"/>
</filter>
<linearGradient id="paint0_linear_0_1" x1="468.549" y1="57.0616" x2="-20.7647" y2="57.0597" gradientUnits="userSpaceOnUse">
<stop stop-color="#2B88BB"/>
<stop offset="1" stop-color="#5CC889"/>
</linearGradient>
<linearGradient id="paint1_linear_0_1" x1="-14" y1="48" x2="465.542" y2="48" gradientUnits="userSpaceOnUse">
<stop stop-color="#D0FFE4"/>
<stop offset="1" stop-color="#2B88BB"/>
</linearGradient>
<clipPath id="clip0_0_1">
<rect width="432" height="113" fill="white"/>
</clipPath>
</defs>
</svg>
